<svg width="25" height="25" viewBox="0 0 25 25" fill="none" xmlns="http://www.w3.org/2000/svg">
<path fill-rule="evenodd" clip-rule="evenodd" d="M0.586 1.58601C0.961056 1.21107 1.46967 1.00044 2 1.00044C2.53033 1.00044 3.03894 1.21107 3.414 1.58601L12 10.172L20.586 1.58601C20.7705 1.39499 20.9912 1.24263 21.2352 1.13781C21.4792 1.03299 21.7416 0.977816 22.0072 0.975509C22.2728 0.973201 22.5361 1.0238 22.7819 1.12437C23.0277 1.22493 23.251 1.37343 23.4388 1.56122C23.6266 1.749 23.7751 1.97231 23.8756 2.2181C23.9762 2.46389 24.0268 2.72725 24.0245 2.99281C24.0222 3.25837 23.967 3.52081 23.8622 3.76482C23.7574 4.00883 23.605 4.22952 23.414 4.41401L14.828 13L23.414 21.586C23.7783 21.9632 23.9799 22.4684 23.9753 22.9928C23.9708 23.5172 23.7605 24.0188 23.3896 24.3896C23.0188 24.7605 22.5172 24.9708 21.9928 24.9754C21.4684 24.9799 20.9632 24.7783 20.586 24.414L12 15.828L3.414 24.414C3.0368 24.7783 2.53159 24.9799 2.0072 24.9754C1.4828 24.9708 0.981179 24.7605 0.610363 24.3896C0.239547 24.0188 0.0292084 23.5172 0.0246515 22.9928C0.0200947 22.4684 0.221684 21.9632 0.586 21.586L9.172 13L0.586 4.41401C0.211058 4.03895 0.000427246 3.53034 0.000427246 3.00001C0.000427246 2.46968 0.211058 1.96107 0.586 1.58601Z" fill="#171515"/>
</svg>
