<svg width="25" height="26" viewBox="0 0 25 26" fill="none" xmlns="http://www.w3.org/2000/svg">
<path d="M23.2143 14.7857H14.2857V23.7143C14.2857 24.1879 14.0976 24.6421 13.7627 24.977C13.4278 25.3119 12.9736 25.5 12.5 25.5C12.0264 25.5 11.5722 25.3119 11.2373 24.977C10.9024 24.6421 10.7143 24.1879 10.7143 23.7143V14.7857H1.78571C1.31211 14.7857 0.85791 14.5976 0.523024 14.2627C0.188138 13.9278 0 13.4736 0 13C0 12.5264 0.188138 12.0722 0.523024 11.7373C0.85791 11.4024 1.31211 11.2143 1.78571 11.2143H10.7143V2.28571C10.7143 1.81211 10.9024 1.35791 11.2373 1.02302C11.5722 0.688137 12.0264 0.5 12.5 0.5C12.9736 0.5 13.4278 0.688137 13.7627 1.02302C14.0976 1.35791 14.2857 1.81211 14.2857 2.28571V11.2143H23.2143C23.6879 11.2143 24.1421 11.4024 24.477 11.7373C24.8119 12.0722 25 12.5264 25 13C25 13.4736 24.8119 13.9278 24.477 14.2627C24.1421 14.5976 23.6879 14.7857 23.2143 14.7857Z" fill="#171515"/>
</svg>
